<svg width="512" height="512" viewBox="0 0 512 512" fill="none" xmlns="http://www.w3.org/2000/svg">
  <rect width="512" height="512" rx="128" fill="#181E04"/>
  <path d="M256 120C256 120 180 160 180 260C180 340 230 380 256 390C282 380 332 340 332 260C332 160 256 120 256 120Z" fill="#F97316"/>
  <path d="M256 120V390C256 390 296 360 310 260C315 220 300 170 256 120Z" fill="#FB923C"/>
  <circle cx="256" cy="200" r="15" fill="white" fill-opacity="0.2"/>
  <circle cx="280" cy="240" r="10" fill="white" fill-opacity="0.2"/>
  <circle cx="232" cy="240" r="10" fill="white" fill-opacity="0.2"/>
  <circle cx="256" cy="280" r="20" fill="white" fill-opacity="0.1"/>
  <path d="M256 140C256 140 296 170 296 240" stroke="white" stroke-width="4" stroke-linecap="round" stroke-opacity="0.3"/>
  <path d="M256 370C256 370 216 340 216 270" stroke="white" stroke-width="4" stroke-linecap="round" stroke-opacity="0.3"/>
</svg>
